<?xml version="1.0" encoding="UTF-8"?>
<svg width="144.5mm" height="144.5mm" version="1.1" viewBox="0 0 511.99998 511.99998" xmlns="http://www.w3.org/2000/svg">
 <g transform="translate(-132.39 -111.21)">
  <rect x="132.39" y="111.21" width="512" height="512" fill="#212121"/>
  <path d="m388 377.36a205 205 0 0 0 -205 205 205 205 0 0 0 1.7598 24.762h406.57a205 205 0 0 0 1.6719 -24.762 205 205 0 0 0 -205 -205z" fill="#fff"/>
  <path d="m235.97 347.22 152.03 131.52 152.03-131.52c-20.027-29.456-284.03-29.456-304.05 0z" fill="#212121"/>
  <path d="m235.97 326.22 152.03 131.52 152.03-131.52c-20.027-29.456-284.03-29.456-304.05 0z" fill="#ff9e21"/>
  <circle cx="453.26" cy="219.59" r="53.134" fill="#fff"/>
  <circle cx="316.24" cy="221.04" r="57.652" fill="#fff"/>
  <path d="m318.58 201.55a27.152 27.152 0 0 0 -27.152 27.152 27.152 27.152 0 0 0 2.8594 12.102 107.06 107.06 0 0 1 21.293 -2.252 107.06 107.06 0 0 1 26.625 3.5 27.152 27.152 0 0 0 3.5273 -13.35 27.152 27.152 0 0 0 -27.152 -27.152z"/>
  <path d="m454.58 202.13a27.152 27.152 0 0 1 27.152 27.152 27.152 27.152 0 0 1 -2.8594 12.102 107.06 107.06 0 0 0 -21.293 -2.252 107.06 107.06 0 0 0 -26.625 3.5 27.152 27.152 0 0 1 -3.5273 -13.35 27.152 27.152 0 0 1 27.152 -27.152z"/>
 </g>
</svg>
